<?xml version="1.0" encoding="UTF-8"?><svg id="Layer_2" xmlns="http://www.w3.org/2000/svg" width="179.3" height="129.36" viewBox="0 0 179.3 129.36"><defs><style>.cls-1{fill:#020426;}.cls-2{fill:#d4fcff;}</style></defs><g id="Layer_1-2"><path class="cls-2" d="m4.12,91.74h0c-2.27,0-4.12,1.85-4.12,4.12v13.73h0v-13.73C0,93.59,1.85,91.74,4.12,91.74Z"/><path class="cls-2" d="m33.49.69c1.05-.27,2.13-.46,3.23-.58-1.1.11-2.18.31-3.23.58Z"/><path class="cls-2" d="m25.87,4.35c2.25-1.68,4.83-2.94,7.62-3.66-2.8.72-5.38,1.98-7.62,3.66Z"/><path class="cls-2" d="m4.56,63.98c0-8.72,5.12-16.27,12.51-19.79v-22.3c0-7.17,3.46-13.54,8.8-17.53-5.34,4-8.8,10.37-8.8,17.53v22.3c-7.39,3.53-12.51,11.07-12.51,19.79v27.76h0v-27.76Z"/><path class="cls-2" d="m167.97,63.98c0-8.35-6.8-15.15-15.15-15.15H26.48c-8.35,0-15.15,6.8-15.15,15.15v27.54h156.64v-27.54Z"/><polygon class="cls-2" points="6.77 109.59 6.77 122.59 11.54 122.59 17.13 109.59 6.77 109.59"/><polygon class="cls-2" points="167.75 122.59 172.52 122.59 172.52 109.59 162.17 109.59 167.75 122.59"/><rect class="cls-2" x="6.77" y="98.51" width="165.75" height="4.31"/><rect class="cls-2" x="0" y="109.59" width="0" height="19.77"/><path class="cls-2" d="m35.66,37.83c0-6.47,5.27-11.74,11.74-11.74h23.57c6.47,0,11.74,5.27,11.74,11.74v3.29h14.55v-3.29c0-6.47,5.27-11.74,11.74-11.74h23.57c6.47,0,11.74,5.27,11.74,11.74v3.29h11.82v-19.24c0-8.34-6.78-15.12-15.12-15.12H38.96c-8.34,0-15.12,6.78-15.12,15.12v19.24h11.82v-3.29Z"/><path class="cls-2" d="m109,32.86c-2.74,0-4.97,2.23-4.97,4.97v3.25h33.51v-3.25c0-2.74-2.23-4.97-4.97-4.97h-23.57Z"/><path class="cls-2" d="m47.4,32.86c-2.74,0-4.97,2.23-4.97,4.97v3.25h33.51v-3.25c0-2.74-2.23-4.97-4.97-4.97h-23.57Z"/><path class="cls-1" d="m175.18,91.74h-.44v-27.76c0-1.59-.17-3.13-.49-4.62-.11-.5-.23-.99-.37-1.47-.28-.97-.63-1.91-1.03-2.82-1.83-4.08-4.87-7.51-8.66-9.82-.42-.26-.85-.5-1.29-.73v-22.63c0-12.07-9.82-21.89-21.89-21.89H38.96c-.75,0-1.5.04-2.23.11-1.1.11-2.18.31-3.23.58-2.8.72-5.38,1.98-7.62,3.66-5.34,4-8.8,10.37-8.8,17.53v22.3c-7.39,3.53-12.51,11.07-12.51,19.79v27.76h-.44C1.85,91.74,0,93.59,0,95.86v13.73h0v19.77h16l8.49-19.77h130.3l8.49,19.77h16v-19.77h0v-13.73c0-2.27-1.85-4.12-4.12-4.12ZM23.84,21.89c0-8.34,6.78-15.12,15.12-15.12h102.05c8.34,0,15.12,6.78,15.12,15.12v19.24h-11.82v-3.29c0-6.47-5.27-11.74-11.74-11.74h-23.57c-6.47,0-11.74,5.27-11.74,11.74v3.29h-14.55v-3.29c0-6.47-5.27-11.74-11.74-11.74h-23.57c-6.47,0-11.74,5.27-11.74,11.74v3.29h-11.82v-19.24Zm113.7,15.95v3.25h-33.51v-3.25c0-2.74,2.23-4.97,4.97-4.97h23.57c2.74,0,4.97,2.23,4.97,4.97Zm-61.6,0v3.25h-33.51v-3.25c0-2.74,2.23-4.97,4.97-4.97h23.57c2.74,0,4.97,2.23,4.97,4.97ZM11.33,63.98c0-8.35,6.8-15.15,15.15-15.15h126.35c8.35,0,15.15,6.8,15.15,15.15v27.54H11.33v-27.54Zm.22,58.61h-4.77v-13h10.36l-5.59,13Zm160.98,0h-4.77l-5.59-13h10.36v13Zm0-19.77H6.77v-4.31h165.75v4.31Z"/></g></svg>