<?xml version="1.0" encoding="UTF-8"?><svg id="Layer_2" xmlns="http://www.w3.org/2000/svg" width="134.47" height="193.62" viewBox="0 0 134.47 193.62"><defs><style>.cls-1{fill:none;}.cls-2{fill:#020426;}.cls-3{fill:#d4fcff;}</style></defs><g id="Layer_1-2"><path class="cls-1" d="m93.96,67.55c0-14.74-11.99-26.73-26.73-26.73s-26.73,11.99-26.73,26.73,11.99,26.73,26.73,26.73,26.73-11.99,26.73-26.73Z"/><path class="cls-3" d="m125.29,67.23c0-32.01-26.04-58.05-58.05-58.05S9.18,35.22,9.18,67.23c0,15.21,8.06,37.57,23.32,64.67,12.58,22.34,26.81,42.33,34.17,52.25.28.38.86.38,1.14,0,7.36-9.93,21.59-29.91,34.17-52.25,15.25-27.09,23.32-49.46,23.32-64.67Zm-58.05,36.22c-19.8,0-35.91-16.11-35.91-35.91s16.11-35.91,35.91-35.91,35.91,16.11,35.91,35.91-16.11,35.91-35.91,35.91Z"/><path class="cls-2" d="m67.23,0C30.16,0,0,30.16,0,67.23c0,17.03,8.24,40.3,24.5,69.17,12.82,22.78,27.3,43.12,34.79,53.22,1.88,2.54,4.78,4,7.94,4s6.06-1.46,7.94-4c7.49-10.1,21.97-30.44,34.79-53.22,16.25-28.87,24.5-52.15,24.5-69.17C134.47,30.16,104.31,0,67.23,0Zm-.57,184.15c-7.36-9.93-21.59-29.91-34.17-52.25-15.25-27.09-23.32-49.46-23.32-64.67,0-32.01,26.04-58.05,58.05-58.05s58.05,26.04,58.05,58.05c0,15.21-8.06,37.57-23.32,64.67-12.58,22.34-26.81,42.33-34.17,52.25-.28.38-.86.38-1.14,0Z"/><path class="cls-2" d="m67.23,31.63c-19.8,0-35.91,16.11-35.91,35.91s16.11,35.91,35.91,35.91,35.91-16.11,35.91-35.91-16.11-35.91-35.91-35.91Zm-26.73,35.91c0-14.74,11.99-26.73,26.73-26.73s26.73,11.99,26.73,26.73-11.99,26.73-26.73,26.73-26.73-11.99-26.73-26.73Z"/></g></svg>