<?xml version="1.0" encoding="UTF-8"?><svg id="Layer_2" xmlns="http://www.w3.org/2000/svg" width="164.14" height="163.59" viewBox="0 0 164.14 163.59"><defs><style>.cls-1{fill:#020426;}.cls-2{fill:#d4fcff;}</style></defs><g id="Layer_1-2"><path class="cls-2" d="m10.48,52.02c-.18,0-.36,0-.54.01.18,0,.36-.01.54-.01h0Z"/><path class="cls-2" d="m53.04,7.36c.1-.33.22-.65.35-.96-.13.31-.25.63-.35.96Z"/><path class="cls-2" d="m6.88,52.66c.32-.12.65-.22.98-.31-.33.09-.66.19-.98.31Z"/><path class="cls-2" d="m5.05,53.54c.29-.18.59-.34.89-.48-.31.15-.6.31-.89.48Z"/><path class="cls-2" d="m53.83,5.49c.16-.3.34-.58.53-.86-.19.28-.36.57-.53.86Z"/><path class="cls-2" d="m8.37,52.23c.51-.1,1.04-.17,1.57-.2-.53.03-1.06.09-1.57.2Z"/><path class="cls-2" d="m157.56,101.1V10.48c0-2.15-1.75-3.89-3.89-3.89H63.04c-2.15,0-3.89,1.75-3.89,3.89v41.54h0v6.58H10.48c-2.15,0-3.89,1.75-3.89,3.89v90.62c0,2.15,1.75,3.89,3.89,3.89h90.62c2.15,0,3.89-1.75,3.89-3.89v-48.13h2.98s45.7,0,45.7,0c2.15,0,3.89-1.75,3.89-3.89Zm-98.31,22.5h-6.12v-14.42c0-.82-.07-1.48-.22-1.99-.15-.51-.34-.91-.59-1.2-.25-.29-.55-.5-.9-.61-.35-.12-.71-.17-1.09-.17-.61,0-1.17.1-1.68.31-.51.2-1.01.55-1.51,1.05-.41.41-.74.87-.98,1.4-.25.52-.37,1.08-.37,1.66v13.99h-6.12v-14.42c0-.82-.07-1.48-.22-1.99-.15-.51-.34-.91-.59-1.2-.25-.29-.55-.5-.9-.61-.35-.12-.71-.17-1.09-.17-.61,0-1.17.1-1.68.31-.51.2-1.01.55-1.51,1.05-.41.41-.74.9-.98,1.46-.25.57-.37,1.19-.37,1.86v13.72h-6.12v-22.82h5.94v3.06c.84-1.28,1.84-2.23,2.97-2.84s2.33-.92,3.58-.92c1.66,0,3.02.34,4.06,1.01,1.05.67,1.79,1.65,2.23,2.93,1.05-1.4,2.16-2.4,3.32-3.02,1.17-.61,2.45-.92,3.85-.92,2.36,0,4.13.65,5.31,1.94,1.18,1.3,1.77,3.4,1.77,6.32v15.25Zm25.53,0h-20.94v-4.59c1.25-1.11,2.49-2.16,3.72-3.17,1.22-1.01,2.46-2.06,3.72-3.17,1.22-1.08,2.29-2.05,3.21-2.93s1.68-1.72,2.29-2.54c.61-.82,1.07-1.62,1.38-2.43.31-.8.46-1.68.46-2.64,0-1.25-.36-2.28-1.07-3.08-.71-.8-1.68-1.2-2.91-1.2-1.46,0-2.6.33-3.43.98s-1.45,1.9-1.86,3.74l-5.94-.7c.26-1.25.64-2.44,1.14-3.56.5-1.12,1.17-2.11,2.03-2.97s1.94-1.54,3.26-2.03c1.31-.5,2.93-.74,4.85-.74,3.38,0,5.94.83,7.69,2.49s2.62,3.92,2.62,6.77c0,1.22-.15,2.35-.46,3.39-.31,1.03-.76,2.05-1.38,3.04-.61.99-1.39,1.99-2.34,2.99-.95,1.01-2.08,2.09-3.39,3.26-.7.58-1.41,1.17-2.12,1.75-.71.58-1.48,1.25-2.29,2.01h12.41l-.66,5.33Z"/><path class="cls-2" d="m63.04,0c-1.44,0-2.82.29-4.07.82,1.25-.53,2.63-.82,4.07-.82h0Z"/><path class="cls-2" d="m54.65,4.21c.2-.27.42-.53.64-.78-.23.25-.44.51-.64.78Z"/><path class="cls-2" d="m55.64,3.07c.47-.47.99-.9,1.55-1.28-.56.38-1.08.81-1.55,1.28Z"/><path class="cls-2" d="m57.19,1.79c.28-.19.57-.36.86-.53-.3.16-.59.34-.86.53Z"/><path class="cls-2" d="m7.86,163.26c-.33-.09-.66-.19-.98-.31.32.12.65.22.98.31Z"/><path class="cls-2" d="m10.48,163.59h0c-.18,0-.36,0-.54-.01.18,0,.36.01.54.01Z"/><path class="cls-2" d="m5.94,162.56c-.31-.15-.6-.31-.89-.48.29.18.59.34.89.48Z"/><path class="cls-2" d="m9.94,163.58c-.53-.03-1.06-.09-1.57-.2.51.1,1.04.17,1.57.2Z"/><path class="cls-2" d="m3.82,161.2c-.26-.21-.51-.44-.74-.68.24.24.49.46.74.68Z"/><path class="cls-2" d="m3.07,55.09c.24-.24.49-.46.74-.68-.26.21-.51.44-.74.68Z"/><path class="cls-1" d="m160.7,2.72c-.25-.23-.51-.44-.78-.64-1.21-.91-2.62-1.56-4.15-1.87-.68-.14-1.39-.21-2.11-.21H63.04c-1.44,0-2.82.29-4.07.82-.31.13-.62.28-.92.44s-.59.34-.86.53c-.56.38-1.08.81-1.55,1.28-.12.12-.23.24-.35.36-.23.25-.44.51-.64.78-.1.13-.2.27-.29.41-.19.28-.36.57-.53.86s-.31.6-.44.92c-.13.31-.25.63-.35.96-.31.98-.47,2.03-.47,3.11v41.54H10.48c-.18,0-.36,0-.54.01-.53.03-1.06.09-1.57.2-.17.03-.34.07-.51.12-.33.09-.66.19-.98.31s-.63.25-.94.4c-.31.15-.6.31-.89.48-.43.26-.84.56-1.23.88-.26.21-.51.44-.74.68-1.9,1.9-3.07,4.52-3.07,7.4v90.62c0,2.89,1.17,5.51,3.07,7.4.24.24.49.46.74.68.39.32.8.61,1.23.88.29.18.59.34.89.48.31.15.62.28.94.4s.65.22.98.31c.17.04.34.08.51.12.51.1,1.04.17,1.57.2.18,0,.36.01.54.01h90.62c5.78,0,10.47-4.7,10.47-10.47v-41.54h42.09c5.78,0,10.47-4.7,10.47-10.47V10.48c0-3.07-1.33-5.83-3.44-7.75Zm-52.74,102.26h0s-2.98,0-2.98,0v48.13c0,2.15-1.75,3.89-3.89,3.89H10.48c-2.15,0-3.89-1.75-3.89-3.89V62.49c0-2.15,1.75-3.89,3.89-3.89h48.68v-6.58h0V10.48c0-2.15,1.75-3.89,3.89-3.89h90.62c2.15,0,3.89,1.75,3.89,3.89v90.62c0,2.15-1.75,3.89-3.89,3.89h-45.7Z"/><path class="cls-1" d="m52.17,100.09c-1.4,0-2.68.31-3.85.92-1.17.61-2.27,1.62-3.32,3.02-.44-1.28-1.18-2.26-2.23-2.93-1.05-.67-2.4-1.01-4.06-1.01-1.25,0-2.45.31-3.58.92s-2.13,1.56-2.97,2.84v-3.06h-5.94v22.82h6.12v-13.72c0-.67.12-1.29.37-1.86.25-.57.58-1.06.98-1.46.5-.49,1-.84,1.51-1.05.51-.2,1.07-.31,1.68-.31.38,0,.74.06,1.09.17.35.12.65.32.9.61.25.29.44.69.59,1.2.15.51.22,1.17.22,1.99v14.42h6.12v-13.99c0-.58.12-1.14.37-1.66.25-.52.58-.99.98-1.4.5-.49,1-.84,1.51-1.05.51-.2,1.07-.31,1.68-.31.38,0,.74.06,1.09.17.35.12.65.32.9.61.25.29.44.69.59,1.2.15.51.22,1.17.22,1.99v14.42h6.12v-15.25c0-2.91-.59-5.02-1.77-6.32-1.18-1.3-2.95-1.94-5.31-1.94Z"/><path class="cls-1" d="m75.31,116.26c.71-.58,1.42-1.17,2.12-1.75,1.31-1.17,2.44-2.25,3.39-3.26.95-1.01,1.73-2,2.34-2.99.61-.99,1.07-2,1.38-3.04.31-1.03.46-2.16.46-3.39,0-2.86-.87-5.11-2.62-6.77s-4.31-2.49-7.69-2.49c-1.92,0-3.54.25-4.85.74-1.31.5-2.4,1.17-3.26,2.03s-1.54,1.85-2.03,2.97c-.5,1.12-.87,2.31-1.14,3.56l5.94.7c.41-1.84,1.03-3.08,1.86-3.74s1.97-.98,3.43-.98c1.22,0,2.19.4,2.91,1.2.71.8,1.07,1.83,1.07,3.08,0,.96-.15,1.84-.46,2.64-.31.8-.77,1.61-1.38,2.43-.61.82-1.38,1.66-2.29,2.54s-1.99,1.85-3.21,2.93c-1.25,1.11-2.49,2.16-3.72,3.17-1.22,1.01-2.46,2.06-3.72,3.17v4.59h20.94l.66-5.33h-12.41c.82-.76,1.58-1.43,2.29-2.01Z"/></g></svg>